<?xml version="1.0" encoding="UTF-8"?> <svg xmlns="http://www.w3.org/2000/svg" width="180" height="38" viewBox="0 0 180 38" fill="none"><g clip-path="url(#clip0_106_315)"><path d="M43.3159 0.667453L28.3795 37.2394H18.6347L11.285 8.05332C10.8388 6.25564 10.4508 5.59705 9.09362 4.83969C6.87845 3.60607 3.21937 2.44928 0 1.73094L0.218665 0.667453H15.9049C17.9044 0.667453 19.7018 2.0334 20.1558 4.39636L24.0377 25.5588L33.6317 0.667453H43.3159ZM81.4985 25.299C81.5377 15.6465 68.4927 15.1148 68.5824 10.8029C68.6104 9.49061 69.8279 8.09539 72.4929 7.73927C73.8138 7.56182 77.4532 7.42645 81.5811 9.37597L83.2003 1.62057C80.9822 0.794291 78.1282 -0.00088501 74.5773 -0.00088501C65.4653 -0.00088501 59.0527 4.97018 58.9986 12.0883C58.9398 17.3533 63.5757 20.2913 67.0684 22.0408C70.6615 23.8324 71.8672 24.9837 71.8535 26.5863C71.8279 29.0395 68.9877 30.1225 66.3334 30.1652C61.6998 30.2384 59.0111 28.8785 56.8678 27.8559L55.1969 35.868C57.3509 36.8821 61.3267 37.7669 65.4486 37.8114C75.1335 37.8114 81.4688 32.902 81.4985 25.299ZM105.56 37.24H114.086L106.644 0.667453H98.7743C97.0047 0.667453 95.5121 1.72484 94.8514 3.35056L81.0178 37.2394H90.6979L92.6201 31.7763H104.448L105.561 37.2394L105.56 37.24ZM95.2738 24.2812L100.126 10.5498L102.919 24.2812H95.2744H95.2738ZM56.4881 0.667453L48.8651 37.2394H39.6467L47.2727 0.667453H56.4881Z" fill="#1434CB"></path></g><path d="M158.146 4.06221H141.946V33.9378H158.146V4.06221Z" fill="#FF5F00"></path><path d="M142.975 19C142.972 16.1228 143.607 13.2826 144.832 10.6946C146.058 8.10664 147.84 5.83859 150.046 4.06221C147.315 1.85907 144.035 0.488975 140.58 0.108514C137.126 -0.271946 133.638 0.352567 130.513 1.9107C127.389 3.46884 124.754 5.89772 122.911 8.91972C121.068 11.9417 120.091 15.4349 120.091 19C120.091 22.5651 121.068 26.0583 122.911 29.0803C124.754 32.1023 127.389 34.5312 130.513 36.0893C133.638 37.6474 137.126 38.2719 140.58 37.8915C144.035 37.511 147.315 36.1409 150.046 33.9378C147.84 32.1614 146.058 29.8933 144.832 27.3053C143.607 24.7173 142.972 21.8772 142.975 19Z" fill="#EB001B"></path><path d="M180 19C180 22.5651 179.023 26.0582 177.18 29.0802C175.337 32.1022 172.703 34.5311 169.578 36.0892C166.454 37.6474 162.965 38.2719 159.511 37.8915C156.057 37.511 152.777 36.1409 150.046 33.9378C152.249 32.1596 154.031 29.8912 155.256 27.3036C156.481 24.716 157.117 21.8768 157.117 19C157.117 16.1232 156.481 13.284 155.256 10.6964C154.031 8.10879 152.249 5.84039 150.046 4.0622C152.777 1.85906 156.057 0.488965 159.511 0.108509C162.965 -0.271947 166.454 0.352594 169.578 1.91075C172.703 3.4689 175.337 5.89778 177.18 8.91978C179.023 11.9418 180 15.4349 180 19Z" fill="#F79E1B"></path><path d="M178.234 30.7735V30.1619H178.474V30.0373H177.862V30.1619H178.102V30.7735H178.234ZM179.422 30.7735V30.0361H179.234L179.019 30.5433L178.803 30.0361H178.615V30.7735H178.747V30.2172L178.95 30.6968H179.087L179.29 30.216V30.7735H179.422Z" fill="#F79E1B"></path><defs><clipPath id="clip0_106_315"><rect width="114.086" height="37.8117" fill="white"></rect></clipPath></defs></svg> 